<mxfile host="Electron" agent="Mozilla/5.0 (Windows NT 10.0; Win64; x64) AppleWebKit/537.36 (KHTML, like Gecko) draw.io/28.1.2 Chrome/138.0.7204.243 Electron/37.4.0 Safari/537.36" version="28.1.2">
  <diagram name="Page-1" id="mnU-Wo1fCuVpfZbNAUWn">
    <mxGraphModel dx="531" dy="833" grid="1" gridSize="10" guides="1" tooltips="1" connect="1" arrows="1" fold="1" page="1" pageScale="1" pageWidth="850" pageHeight="1100" math="0" shadow="0">
      <root>
        <mxCell id="0" />
        <mxCell id="1" parent="0" />
        <mxCell id="ZWDw_myylXkHseVhUavi-1" value="&lt;font&gt;&lt;b&gt;Data Flow Diagram&lt;/b&gt;&lt;/font&gt;" style="text;html=1;align=center;verticalAlign=middle;whiteSpace=wrap;rounded=0;fontSize=90;" parent="1" vertex="1">
          <mxGeometry x="5" y="120" width="840" height="40" as="geometry" />
        </mxCell>
        <mxCell id="ZWDw_myylXkHseVhUavi-6" value="" style="rounded=0;whiteSpace=wrap;html=1;strokeColor=default;dashed=1;fillColor=none;" parent="1" vertex="1">
          <mxGeometry x="40" y="266.87" width="100" height="240" as="geometry" />
        </mxCell>
        <mxCell id="ZWDw_myylXkHseVhUavi-7" value="" style="rounded=0;whiteSpace=wrap;html=1;fillColor=default;strokeColor=none;dashed=1;dashPattern=1 4;" parent="1" vertex="1">
          <mxGeometry x="58.890000000000015" y="246.87" width="60" height="40" as="geometry" />
        </mxCell>
        <mxCell id="ZWDw_myylXkHseVhUavi-8" value="&lt;b&gt;Sources&lt;/b&gt;" style="text;html=1;align=center;verticalAlign=middle;whiteSpace=wrap;rounded=0;" parent="1" vertex="1">
          <mxGeometry x="58.890000000000015" y="251.87" width="60" height="30" as="geometry" />
        </mxCell>
        <mxCell id="ZWDw_myylXkHseVhUavi-37" style="edgeStyle=orthogonalEdgeStyle;rounded=0;orthogonalLoop=1;jettySize=auto;html=1;entryX=0;entryY=0.5;entryDx=0;entryDy=0;" parent="1" source="ZWDw_myylXkHseVhUavi-9" target="ZWDw_myylXkHseVhUavi-28" edge="1">
          <mxGeometry relative="1" as="geometry" />
        </mxCell>
        <mxCell id="ZWDw_myylXkHseVhUavi-38" style="edgeStyle=orthogonalEdgeStyle;rounded=0;orthogonalLoop=1;jettySize=auto;html=1;entryX=0;entryY=0.5;entryDx=0;entryDy=0;" parent="1" source="ZWDw_myylXkHseVhUavi-9" target="ZWDw_myylXkHseVhUavi-34" edge="1">
          <mxGeometry relative="1" as="geometry" />
        </mxCell>
        <mxCell id="ZWDw_myylXkHseVhUavi-9" value="" style="image;aspect=fixed;html=1;points=[];align=center;fontSize=12;image=img/lib/azure2/general/Folder_Blank.svg;" parent="1" vertex="1">
          <mxGeometry x="70.36" y="306.87" width="49.29" height="40" as="geometry" />
        </mxCell>
        <mxCell id="ZWDw_myylXkHseVhUavi-11" value="&lt;b&gt;CRM&lt;/b&gt;" style="text;html=1;align=center;verticalAlign=middle;whiteSpace=wrap;rounded=0;" parent="1" vertex="1">
          <mxGeometry x="68.88" y="356.87" width="40" height="30" as="geometry" />
        </mxCell>
        <mxCell id="ZWDw_myylXkHseVhUavi-47" style="edgeStyle=orthogonalEdgeStyle;rounded=0;orthogonalLoop=1;jettySize=auto;html=1;" parent="1" source="ZWDw_myylXkHseVhUavi-12" target="ZWDw_myylXkHseVhUavi-43" edge="1">
          <mxGeometry relative="1" as="geometry" />
        </mxCell>
        <mxCell id="ZWDw_myylXkHseVhUavi-48" style="edgeStyle=orthogonalEdgeStyle;rounded=0;orthogonalLoop=1;jettySize=auto;html=1;entryX=0;entryY=0.5;entryDx=0;entryDy=0;" parent="1" source="ZWDw_myylXkHseVhUavi-12" target="ZWDw_myylXkHseVhUavi-40" edge="1">
          <mxGeometry relative="1" as="geometry" />
        </mxCell>
        <mxCell id="ZWDw_myylXkHseVhUavi-49" style="edgeStyle=orthogonalEdgeStyle;rounded=0;orthogonalLoop=1;jettySize=auto;html=1;entryX=0;entryY=0.5;entryDx=0;entryDy=0;" parent="1" source="ZWDw_myylXkHseVhUavi-12" target="ZWDw_myylXkHseVhUavi-45" edge="1">
          <mxGeometry relative="1" as="geometry" />
        </mxCell>
        <mxCell id="ZWDw_myylXkHseVhUavi-12" value="" style="image;aspect=fixed;html=1;points=[];align=center;fontSize=12;image=img/lib/azure2/general/Folder_Blank.svg;" parent="1" vertex="1">
          <mxGeometry x="70.36" y="421.87" width="49.29" height="40" as="geometry" />
        </mxCell>
        <mxCell id="ZWDw_myylXkHseVhUavi-14" value="&lt;b&gt;ERP&lt;/b&gt;" style="text;html=1;align=center;verticalAlign=middle;whiteSpace=wrap;rounded=0;" parent="1" vertex="1">
          <mxGeometry x="62.92" y="466.87" width="51.93" height="33.13" as="geometry" />
        </mxCell>
        <mxCell id="ZWDw_myylXkHseVhUavi-18" value="" style="rounded=1;whiteSpace=wrap;html=1;fillColor=#ffe6cc;strokeColor=#d79b00;" parent="1" vertex="1">
          <mxGeometry x="190" y="221.87" width="160" height="25" as="geometry" />
        </mxCell>
        <mxCell id="ZWDw_myylXkHseVhUavi-19" value="" style="rounded=1;whiteSpace=wrap;html=1;fillColor=none;strokeColor=#d79b00;strokeWidth=3;" parent="1" vertex="1">
          <mxGeometry x="170" y="266.87" width="195" height="240" as="geometry" />
        </mxCell>
        <mxCell id="ZWDw_myylXkHseVhUavi-20" value="&lt;b&gt;&lt;font style=&quot;font-size: 15px;&quot;&gt;Bronze Layer&lt;/font&gt;&lt;/b&gt;" style="text;html=1;align=center;verticalAlign=middle;whiteSpace=wrap;rounded=1;" parent="1" vertex="1">
          <mxGeometry x="220" y="220.62" width="110" height="26.25" as="geometry" />
        </mxCell>
        <mxCell id="ZWDw_myylXkHseVhUavi-28" value="" style="rounded=1;whiteSpace=wrap;html=1;fillColor=#ffe6cc;strokeColor=#d79b00;" parent="1" vertex="1">
          <mxGeometry x="192.5" y="286.87" width="160" height="25" as="geometry" />
        </mxCell>
        <mxCell id="13WFfSaOPEswXD3yg6oG-22" style="edgeStyle=orthogonalEdgeStyle;rounded=0;orthogonalLoop=1;jettySize=auto;html=1;entryX=0;entryY=0.5;entryDx=0;entryDy=0;" parent="1" source="ZWDw_myylXkHseVhUavi-29" target="13WFfSaOPEswXD3yg6oG-4" edge="1">
          <mxGeometry relative="1" as="geometry" />
        </mxCell>
        <mxCell id="ZWDw_myylXkHseVhUavi-29" value="&lt;font style=&quot;font-size: 15px;&quot;&gt;&lt;b&gt;crm_sales_details&lt;/b&gt;&lt;/font&gt;" style="text;html=1;align=center;verticalAlign=middle;whiteSpace=wrap;rounded=1;" parent="1" vertex="1">
          <mxGeometry x="217.5" y="286.87" width="110" height="26.25" as="geometry" />
        </mxCell>
        <mxCell id="ZWDw_myylXkHseVhUavi-39" style="edgeStyle=orthogonalEdgeStyle;rounded=0;orthogonalLoop=1;jettySize=auto;html=1;exitX=0;exitY=0.25;exitDx=0;exitDy=0;" parent="1" source="ZWDw_myylXkHseVhUavi-32" edge="1">
          <mxGeometry relative="1" as="geometry">
            <mxPoint x="193" y="326.87" as="targetPoint" />
          </mxGeometry>
        </mxCell>
        <mxCell id="ZWDw_myylXkHseVhUavi-32" value="" style="rounded=1;whiteSpace=wrap;html=1;fillColor=#ffe6cc;strokeColor=#d79b00;" parent="1" vertex="1">
          <mxGeometry x="192.5" y="320.62" width="160" height="25" as="geometry" />
        </mxCell>
        <mxCell id="13WFfSaOPEswXD3yg6oG-23" style="edgeStyle=orthogonalEdgeStyle;rounded=0;orthogonalLoop=1;jettySize=auto;html=1;entryX=0;entryY=0.5;entryDx=0;entryDy=0;" parent="1" source="ZWDw_myylXkHseVhUavi-33" target="13WFfSaOPEswXD3yg6oG-7" edge="1">
          <mxGeometry relative="1" as="geometry" />
        </mxCell>
        <mxCell id="ZWDw_myylXkHseVhUavi-33" value="&lt;font style=&quot;font-size: 15px;&quot;&gt;&lt;b&gt;crm_cust_info&lt;/b&gt;&lt;/font&gt;" style="text;html=1;align=center;verticalAlign=middle;whiteSpace=wrap;rounded=1;" parent="1" vertex="1">
          <mxGeometry x="217.5" y="320.62" width="110" height="26.25" as="geometry" />
        </mxCell>
        <mxCell id="ZWDw_myylXkHseVhUavi-34" value="" style="rounded=1;whiteSpace=wrap;html=1;fillColor=#ffe6cc;strokeColor=#d79b00;" parent="1" vertex="1">
          <mxGeometry x="192.5" y="356.87" width="160" height="25" as="geometry" />
        </mxCell>
        <mxCell id="13WFfSaOPEswXD3yg6oG-24" style="edgeStyle=orthogonalEdgeStyle;rounded=0;orthogonalLoop=1;jettySize=auto;html=1;entryX=0;entryY=0.5;entryDx=0;entryDy=0;" parent="1" source="ZWDw_myylXkHseVhUavi-35" target="13WFfSaOPEswXD3yg6oG-9" edge="1">
          <mxGeometry relative="1" as="geometry" />
        </mxCell>
        <mxCell id="ZWDw_myylXkHseVhUavi-35" value="&lt;font style=&quot;font-size: 15px;&quot;&gt;&lt;b&gt;crm_prd_info&lt;/b&gt;&lt;/font&gt;" style="text;html=1;align=center;verticalAlign=middle;whiteSpace=wrap;rounded=1;" parent="1" vertex="1">
          <mxGeometry x="217.5" y="356.87" width="110" height="26.25" as="geometry" />
        </mxCell>
        <mxCell id="ZWDw_myylXkHseVhUavi-36" style="edgeStyle=orthogonalEdgeStyle;rounded=0;orthogonalLoop=1;jettySize=auto;html=1;" parent="1" source="ZWDw_myylXkHseVhUavi-9" edge="1">
          <mxGeometry relative="1" as="geometry">
            <mxPoint x="190" y="326.87" as="targetPoint" />
          </mxGeometry>
        </mxCell>
        <mxCell id="ZWDw_myylXkHseVhUavi-40" value="" style="rounded=1;whiteSpace=wrap;html=1;fillColor=#ffe6cc;strokeColor=#d79b00;" parent="1" vertex="1">
          <mxGeometry x="192.5" y="396.87" width="160" height="25" as="geometry" />
        </mxCell>
        <mxCell id="13WFfSaOPEswXD3yg6oG-25" style="edgeStyle=orthogonalEdgeStyle;rounded=0;orthogonalLoop=1;jettySize=auto;html=1;entryX=0;entryY=0.5;entryDx=0;entryDy=0;" parent="1" source="ZWDw_myylXkHseVhUavi-41" target="13WFfSaOPEswXD3yg6oG-11" edge="1">
          <mxGeometry relative="1" as="geometry" />
        </mxCell>
        <mxCell id="ZWDw_myylXkHseVhUavi-41" value="&lt;font style=&quot;font-size: 15px;&quot;&gt;&lt;b&gt;erp_cust_az12&lt;/b&gt;&lt;/font&gt;" style="text;html=1;align=center;verticalAlign=middle;whiteSpace=wrap;rounded=1;" parent="1" vertex="1">
          <mxGeometry x="217.5" y="396.87" width="110" height="26.25" as="geometry" />
        </mxCell>
        <mxCell id="ZWDw_myylXkHseVhUavi-42" style="edgeStyle=orthogonalEdgeStyle;rounded=0;orthogonalLoop=1;jettySize=auto;html=1;exitX=0;exitY=0.25;exitDx=0;exitDy=0;" parent="1" source="ZWDw_myylXkHseVhUavi-43" edge="1">
          <mxGeometry relative="1" as="geometry">
            <mxPoint x="193" y="436.87" as="targetPoint" />
          </mxGeometry>
        </mxCell>
        <mxCell id="ZWDw_myylXkHseVhUavi-43" value="" style="rounded=1;whiteSpace=wrap;html=1;fillColor=#ffe6cc;strokeColor=#d79b00;" parent="1" vertex="1">
          <mxGeometry x="192.5" y="430.62" width="160" height="25" as="geometry" />
        </mxCell>
        <mxCell id="13WFfSaOPEswXD3yg6oG-26" style="edgeStyle=orthogonalEdgeStyle;rounded=0;orthogonalLoop=1;jettySize=auto;html=1;entryX=0;entryY=0.5;entryDx=0;entryDy=0;" parent="1" source="ZWDw_myylXkHseVhUavi-44" target="13WFfSaOPEswXD3yg6oG-14" edge="1">
          <mxGeometry relative="1" as="geometry" />
        </mxCell>
        <mxCell id="ZWDw_myylXkHseVhUavi-44" value="&lt;font style=&quot;font-size: 15px;&quot;&gt;&lt;b&gt;erp_loc_a101&lt;/b&gt;&lt;/font&gt;" style="text;html=1;align=center;verticalAlign=middle;whiteSpace=wrap;rounded=1;" parent="1" vertex="1">
          <mxGeometry x="217.5" y="430.62" width="110" height="26.25" as="geometry" />
        </mxCell>
        <mxCell id="ZWDw_myylXkHseVhUavi-45" value="" style="rounded=1;whiteSpace=wrap;html=1;fillColor=#ffe6cc;strokeColor=#d79b00;" parent="1" vertex="1">
          <mxGeometry x="192.5" y="466.87" width="160" height="25" as="geometry" />
        </mxCell>
        <mxCell id="13WFfSaOPEswXD3yg6oG-27" style="edgeStyle=orthogonalEdgeStyle;rounded=0;orthogonalLoop=1;jettySize=auto;html=1;" parent="1" source="ZWDw_myylXkHseVhUavi-46" target="13WFfSaOPEswXD3yg6oG-16" edge="1">
          <mxGeometry relative="1" as="geometry" />
        </mxCell>
        <mxCell id="ZWDw_myylXkHseVhUavi-46" value="&lt;font style=&quot;font-size: 15px;&quot;&gt;&lt;b&gt;erp_px_cat_g1v2&lt;/b&gt;&lt;/font&gt;" style="text;html=1;align=center;verticalAlign=middle;whiteSpace=wrap;rounded=1;" parent="1" vertex="1">
          <mxGeometry x="217.5" y="466.87" width="110" height="26.25" as="geometry" />
        </mxCell>
        <mxCell id="13WFfSaOPEswXD3yg6oG-1" value="" style="rounded=1;whiteSpace=wrap;html=1;fillColor=#f5f5f5;strokeColor=#666666;fontColor=#333333;" parent="1" vertex="1">
          <mxGeometry x="420" y="221.87" width="160" height="25" as="geometry" />
        </mxCell>
        <mxCell id="13WFfSaOPEswXD3yg6oG-2" value="" style="rounded=1;whiteSpace=wrap;html=1;fillColor=none;strokeColor=#666666;strokeWidth=3;fontColor=#333333;" parent="1" vertex="1">
          <mxGeometry x="400" y="266.87" width="195" height="240" as="geometry" />
        </mxCell>
        <mxCell id="13WFfSaOPEswXD3yg6oG-3" value="&lt;b&gt;&lt;font style=&quot;font-size: 15px;&quot;&gt;Silver Layer&lt;/font&gt;&lt;/b&gt;" style="text;html=1;align=center;verticalAlign=middle;whiteSpace=wrap;rounded=1;" parent="1" vertex="1">
          <mxGeometry x="447.5" y="220" width="110" height="26.25" as="geometry" />
        </mxCell>
        <mxCell id="13WFfSaOPEswXD3yg6oG-4" value="" style="rounded=1;whiteSpace=wrap;html=1;fillColor=#f5f5f5;strokeColor=#666666;fontColor=#333333;" parent="1" vertex="1">
          <mxGeometry x="422.5" y="286.87" width="160" height="25" as="geometry" />
        </mxCell>
        <mxCell id="13WFfSaOPEswXD3yg6oG-5" value="&lt;font style=&quot;font-size: 15px;&quot;&gt;&lt;b&gt;crm_sales_details&lt;/b&gt;&lt;/font&gt;" style="text;html=1;align=center;verticalAlign=middle;whiteSpace=wrap;rounded=1;" parent="1" vertex="1">
          <mxGeometry x="445" y="286.87" width="110" height="26.25" as="geometry" />
        </mxCell>
        <mxCell id="13WFfSaOPEswXD3yg6oG-6" style="edgeStyle=orthogonalEdgeStyle;rounded=0;orthogonalLoop=1;jettySize=auto;html=1;exitX=0;exitY=0.25;exitDx=0;exitDy=0;fillColor=#f5f5f5;strokeColor=#666666;" parent="1" source="13WFfSaOPEswXD3yg6oG-7" edge="1">
          <mxGeometry relative="1" as="geometry">
            <mxPoint x="423" y="326.87" as="targetPoint" />
          </mxGeometry>
        </mxCell>
        <mxCell id="13WFfSaOPEswXD3yg6oG-7" value="" style="rounded=1;whiteSpace=wrap;html=1;fillColor=#f5f5f5;strokeColor=#666666;fontColor=#333333;" parent="1" vertex="1">
          <mxGeometry x="422.5" y="320.62" width="160" height="25" as="geometry" />
        </mxCell>
        <mxCell id="13WFfSaOPEswXD3yg6oG-8" value="&lt;font style=&quot;font-size: 15px;&quot;&gt;&lt;b&gt;crm_cust_info&lt;/b&gt;&lt;/font&gt;" style="text;html=1;align=center;verticalAlign=middle;whiteSpace=wrap;rounded=1;" parent="1" vertex="1">
          <mxGeometry x="445" y="320.62" width="110" height="26.25" as="geometry" />
        </mxCell>
        <mxCell id="13WFfSaOPEswXD3yg6oG-9" value="" style="rounded=1;whiteSpace=wrap;html=1;fillColor=#f5f5f5;strokeColor=#666666;fontColor=#333333;" parent="1" vertex="1">
          <mxGeometry x="422.5" y="356.87" width="160" height="25" as="geometry" />
        </mxCell>
        <mxCell id="13WFfSaOPEswXD3yg6oG-10" value="&lt;font style=&quot;font-size: 15px;&quot;&gt;&lt;b&gt;crm_prd_info&lt;/b&gt;&lt;/font&gt;" style="text;html=1;align=center;verticalAlign=middle;whiteSpace=wrap;rounded=1;" parent="1" vertex="1">
          <mxGeometry x="447.5" y="356.87" width="110" height="26.25" as="geometry" />
        </mxCell>
        <mxCell id="13WFfSaOPEswXD3yg6oG-11" value="" style="rounded=1;whiteSpace=wrap;html=1;fillColor=#f5f5f5;strokeColor=#666666;fontColor=#333333;" parent="1" vertex="1">
          <mxGeometry x="422.5" y="396.87" width="160" height="25" as="geometry" />
        </mxCell>
        <mxCell id="13WFfSaOPEswXD3yg6oG-12" value="&lt;font style=&quot;font-size: 15px;&quot;&gt;&lt;b&gt;erp_cust_az12&lt;/b&gt;&lt;/font&gt;" style="text;html=1;align=center;verticalAlign=middle;whiteSpace=wrap;rounded=1;" parent="1" vertex="1">
          <mxGeometry x="447.5" y="396.87" width="110" height="26.25" as="geometry" />
        </mxCell>
        <mxCell id="13WFfSaOPEswXD3yg6oG-13" style="edgeStyle=orthogonalEdgeStyle;rounded=0;orthogonalLoop=1;jettySize=auto;html=1;exitX=0;exitY=0.25;exitDx=0;exitDy=0;fillColor=#f5f5f5;strokeColor=#666666;" parent="1" source="13WFfSaOPEswXD3yg6oG-14" edge="1">
          <mxGeometry relative="1" as="geometry">
            <mxPoint x="423" y="436.87" as="targetPoint" />
          </mxGeometry>
        </mxCell>
        <mxCell id="13WFfSaOPEswXD3yg6oG-14" value="" style="rounded=1;whiteSpace=wrap;html=1;fillColor=#f5f5f5;strokeColor=#666666;fontColor=#333333;" parent="1" vertex="1">
          <mxGeometry x="422.5" y="430.62" width="160" height="25" as="geometry" />
        </mxCell>
        <mxCell id="13WFfSaOPEswXD3yg6oG-15" value="&lt;font style=&quot;font-size: 15px;&quot;&gt;&lt;b&gt;erp_loc_a101&lt;/b&gt;&lt;/font&gt;" style="text;html=1;align=center;verticalAlign=middle;whiteSpace=wrap;rounded=1;" parent="1" vertex="1">
          <mxGeometry x="447.5" y="430.62" width="110" height="26.25" as="geometry" />
        </mxCell>
        <mxCell id="13WFfSaOPEswXD3yg6oG-16" value="" style="rounded=1;whiteSpace=wrap;html=1;fillColor=#f5f5f5;strokeColor=#666666;fontColor=#333333;" parent="1" vertex="1">
          <mxGeometry x="422.5" y="466.87" width="160" height="25" as="geometry" />
        </mxCell>
        <mxCell id="13WFfSaOPEswXD3yg6oG-17" value="&lt;font style=&quot;font-size: 15px;&quot;&gt;&lt;b&gt;erp_px_cat_g1v2&lt;/b&gt;&lt;/font&gt;" style="text;html=1;align=center;verticalAlign=middle;whiteSpace=wrap;rounded=1;" parent="1" vertex="1">
          <mxGeometry x="447.5" y="466.87" width="110" height="26.25" as="geometry" />
        </mxCell>
        <mxCell id="hhuQ0RfdKdrWqPjM4mlb-2" value="" style="rounded=1;whiteSpace=wrap;html=1;fillColor=#fff2cc;strokeColor=#d6b656;" vertex="1" parent="1">
          <mxGeometry x="647.5" y="223.74" width="160" height="25" as="geometry" />
        </mxCell>
        <mxCell id="hhuQ0RfdKdrWqPjM4mlb-3" value="" style="rounded=1;whiteSpace=wrap;html=1;fillColor=none;strokeColor=#d6b656;strokeWidth=3;" vertex="1" parent="1">
          <mxGeometry x="630" y="270" width="195" height="236.87" as="geometry" />
        </mxCell>
        <mxCell id="hhuQ0RfdKdrWqPjM4mlb-4" value="&lt;b&gt;&lt;font style=&quot;font-size: 15px;&quot;&gt;Gold Layer&lt;/font&gt;&lt;/b&gt;" style="text;html=1;align=center;verticalAlign=middle;whiteSpace=wrap;rounded=1;" vertex="1" parent="1">
          <mxGeometry x="675" y="221.87" width="110" height="26.25" as="geometry" />
        </mxCell>
        <mxCell id="hhuQ0RfdKdrWqPjM4mlb-5" value="" style="rounded=1;whiteSpace=wrap;html=1;fillColor=#fff2cc;strokeColor=#d6b656;" vertex="1" parent="1">
          <mxGeometry x="647.5" y="294.36" width="160" height="25" as="geometry" />
        </mxCell>
        <mxCell id="hhuQ0RfdKdrWqPjM4mlb-6" value="&lt;span style=&quot;font-size: 15px;&quot;&gt;&lt;b&gt;fact_sales&lt;/b&gt;&lt;/span&gt;" style="text;html=1;align=center;verticalAlign=middle;whiteSpace=wrap;rounded=1;" vertex="1" parent="1">
          <mxGeometry x="672.5" y="294.36" width="110" height="26.25" as="geometry" />
        </mxCell>
        <mxCell id="hhuQ0RfdKdrWqPjM4mlb-7" style="edgeStyle=orthogonalEdgeStyle;rounded=0;orthogonalLoop=1;jettySize=auto;html=1;exitX=0;exitY=0.25;exitDx=0;exitDy=0;fillColor=#fff2cc;strokeColor=#d6b656;" edge="1" parent="1">
          <mxGeometry relative="1" as="geometry">
            <mxPoint x="650.5" y="352.49" as="targetPoint" />
            <mxPoint x="650" y="352.4899999999999" as="sourcePoint" />
          </mxGeometry>
        </mxCell>
        <mxCell id="hhuQ0RfdKdrWqPjM4mlb-10" value="" style="rounded=1;whiteSpace=wrap;html=1;fillColor=#fff2cc;strokeColor=#d6b656;" vertex="1" parent="1">
          <mxGeometry x="650" y="358.31" width="160" height="25" as="geometry" />
        </mxCell>
        <mxCell id="hhuQ0RfdKdrWqPjM4mlb-11" value="&lt;font style=&quot;font-size: 15px;&quot;&gt;&lt;b&gt;dim_customers&lt;/b&gt;&lt;/font&gt;" style="text;html=1;align=center;verticalAlign=middle;whiteSpace=wrap;rounded=1;" vertex="1" parent="1">
          <mxGeometry x="675" y="358.31" width="110" height="26.25" as="geometry" />
        </mxCell>
        <mxCell id="hhuQ0RfdKdrWqPjM4mlb-14" style="edgeStyle=orthogonalEdgeStyle;rounded=0;orthogonalLoop=1;jettySize=auto;html=1;exitX=0;exitY=0.25;exitDx=0;exitDy=0;fillColor=#fff2cc;strokeColor=#d6b656;" edge="1" parent="1" source="hhuQ0RfdKdrWqPjM4mlb-15">
          <mxGeometry relative="1" as="geometry">
            <mxPoint x="650.5" y="427.69" as="targetPoint" />
          </mxGeometry>
        </mxCell>
        <mxCell id="hhuQ0RfdKdrWqPjM4mlb-15" value="" style="rounded=1;whiteSpace=wrap;html=1;fillColor=#fff2cc;strokeColor=#d6b656;" vertex="1" parent="1">
          <mxGeometry x="650" y="421.44" width="160" height="25" as="geometry" />
        </mxCell>
        <mxCell id="hhuQ0RfdKdrWqPjM4mlb-16" value="&lt;font style=&quot;font-size: 15px;&quot;&gt;&lt;b&gt;dim_products&lt;/b&gt;&lt;/font&gt;" style="text;html=1;align=center;verticalAlign=middle;whiteSpace=wrap;rounded=1;" vertex="1" parent="1">
          <mxGeometry x="675" y="421.44" width="110" height="26.25" as="geometry" />
        </mxCell>
        <mxCell id="hhuQ0RfdKdrWqPjM4mlb-20" value="" style="endArrow=classic;html=1;rounded=0;exitX=1;exitY=0.5;exitDx=0;exitDy=0;entryX=0;entryY=0.5;entryDx=0;entryDy=0;" edge="1" parent="1" source="13WFfSaOPEswXD3yg6oG-4" target="hhuQ0RfdKdrWqPjM4mlb-5">
          <mxGeometry width="50" height="50" relative="1" as="geometry">
            <mxPoint x="690" y="430" as="sourcePoint" />
            <mxPoint x="740" y="380" as="targetPoint" />
          </mxGeometry>
        </mxCell>
        <mxCell id="hhuQ0RfdKdrWqPjM4mlb-23" value="" style="endArrow=classic;html=1;rounded=0;exitX=1;exitY=0.5;exitDx=0;exitDy=0;entryX=0;entryY=0.5;entryDx=0;entryDy=0;" edge="1" parent="1" source="13WFfSaOPEswXD3yg6oG-7" target="hhuQ0RfdKdrWqPjM4mlb-10">
          <mxGeometry width="50" height="50" relative="1" as="geometry">
            <mxPoint x="600" y="430" as="sourcePoint" />
            <mxPoint x="650" y="380" as="targetPoint" />
          </mxGeometry>
        </mxCell>
        <mxCell id="hhuQ0RfdKdrWqPjM4mlb-24" value="" style="endArrow=classic;html=1;rounded=0;entryX=0;entryY=0.5;entryDx=0;entryDy=0;" edge="1" parent="1" target="hhuQ0RfdKdrWqPjM4mlb-10">
          <mxGeometry width="50" height="50" relative="1" as="geometry">
            <mxPoint x="580" y="410" as="sourcePoint" />
            <mxPoint x="630" y="360" as="targetPoint" />
          </mxGeometry>
        </mxCell>
        <mxCell id="hhuQ0RfdKdrWqPjM4mlb-25" value="" style="endArrow=classic;html=1;rounded=0;entryX=0;entryY=0.5;entryDx=0;entryDy=0;" edge="1" parent="1" target="hhuQ0RfdKdrWqPjM4mlb-10">
          <mxGeometry width="50" height="50" relative="1" as="geometry">
            <mxPoint x="582.5" y="440.82" as="sourcePoint" />
            <mxPoint x="632.5" y="390.82" as="targetPoint" />
          </mxGeometry>
        </mxCell>
        <mxCell id="hhuQ0RfdKdrWqPjM4mlb-26" value="" style="endArrow=classic;html=1;rounded=0;entryX=0;entryY=0.5;entryDx=0;entryDy=0;" edge="1" parent="1" target="hhuQ0RfdKdrWqPjM4mlb-15">
          <mxGeometry width="50" height="50" relative="1" as="geometry">
            <mxPoint x="582.5" y="366.87" as="sourcePoint" />
            <mxPoint x="632.5" y="406.87" as="targetPoint" />
          </mxGeometry>
        </mxCell>
        <mxCell id="hhuQ0RfdKdrWqPjM4mlb-27" value="" style="endArrow=classic;html=1;rounded=0;entryX=0;entryY=0.5;entryDx=0;entryDy=0;exitX=1;exitY=0.5;exitDx=0;exitDy=0;" edge="1" parent="1" source="13WFfSaOPEswXD3yg6oG-16" target="hhuQ0RfdKdrWqPjM4mlb-15">
          <mxGeometry width="50" height="50" relative="1" as="geometry">
            <mxPoint x="580" y="480" as="sourcePoint" />
            <mxPoint x="630" y="430" as="targetPoint" />
          </mxGeometry>
        </mxCell>
      </root>
    </mxGraphModel>
  </diagram>
</mxfile>
